# xmcd CD database file
#
# Track frame offsets:
#	150
#	13450
#	24657
#	32451
#	48111
#	64455
#	74557
#	86595
#	97316
#	113041
#	120146
#	133739
#	141521
#	155837
#
# Disc length: 2191 seconds
#
# Revision: 0
# Processed by: cddbd v1.5.2PL0 Copyright (c) Steve Scherf et al.
# Submitted via: CDex 1.51
#
DISCID=cd088d0e
DTITLE=Billy Holiday - The Greatest Ladies Of Jazz
DYEAR=2006
DGENRE=Jazz
TTITLE0=Billie Blues
TTITLE1=Liver man
TTITLE2=Them there eyes
TTITLE3=My man
TTITLE4=I cover the waterfront
TTITLE5=Crazy He calls Me
TTITLE6=Love come back to Me
TTITLE7=Detour ahead
TTITLE8=Strange fruit
TTITLE9=You're driving Me crazy
TTITLE10=Ain't nobody's business if I do
TTITLE11=All of Me
TTITLE12=I loves You, Porgy
TTITLE13=Miss Brown to You
EXTD=YEAR: 2006
EXTT0=
EXTT1=
EXTT2=
EXTT3=
EXTT4=
EXTT5=
EXTT6=
EXTT7=
EXTT8=
EXTT9=
EXTT10=
EXTT11=
EXTT12=
EXTT13=
PLAYORDER=
